<?xml version="1.0" standalone="no"?>
<!DOCTYPE svg PUBLIC "-//W3C//DTD SVG 20010904//EN"
 "http://www.w3.org/TR/2001/REC-SVG-20010904/DTD/svg10.dtd">
<svg version="1.0" xmlns="http://www.w3.org/2000/svg"
 width="500.000000pt" height="500.000000pt" viewBox="0 0 500.000000 500.000000"
 preserveAspectRatio="xMidYMid meet">
<metadata>
Created by potrace 1.11, written by Peter Selinger 2001-2013
</metadata>
<g transform="translate(0.000000,500.000000) scale(0.100000,-0.100000)"
fill="#000000" stroke="none">
<path d="M1505 4939 c-234 -32 -477 -157 -640 -331 -103 -109 -157 -221 -185
-383 -15 -88 5 -253 47 -379 l28 -83 -35 -19 c-77 -42 -96 -173 -43 -301 43
-101 135 -204 235 -261 50 -29 61 -42 92 -102 19 -39 30 -72 25 -75 -5 -4 -14
-26 -20 -51 -10 -39 -26 -57 -126 -145 -107 -95 -147 -142 -268 -315 -40 -58
-118 -154 -168 -208 -107 -116 -207 -286 -253 -431 -57 -180 -74 -317 -79
-625 -2 -133 -10 -278 -20 -355 -19 -146 -16 -213 16 -307 73 -214 230 -375
414 -424 82 -22 252 -28 307 -11 52 16 53 16 82 -40 42 -83 48 -93 66 -93 16
0 8 20 -47 127 -36 71 -70 134 -76 140 -10 13 4 137 21 183 8 22 9 22 22 -11
7 -19 45 -99 83 -179 38 -80 75 -171 81 -203 10 -56 11 -57 43 -57 28 0 33 4
33 24 0 14 -4 35 -9 49 -12 32 -53 278 -47 284 3 3 10 -15 16 -38 6 -24 32
-105 59 -179 l47 -135 62 -3 c46 -2 62 0 62 10 0 9 3 9 10 -2 7 -11 10 0 11
40 1 56 3 55 14 -14 6 -39 7 -39 19 -15 7 13 20 23 30 22 14 -1 17 4 13 23 -2
13 0 24 5 24 5 0 6 5 3 10 -5 8 -12 7 -23 -2 -14 -10 -15 -10 -5 1 6 7 10 19
9 25 -2 6 -1 8 1 4 3 -5 27 -8 54 -8 43 0 49 -3 49 -21 0 -12 4 -17 11 -13 6
3 9 14 6 24 -2 10 -1 24 4 31 7 11 9 10 9 -3 0 -30 20 -20 27 12 3 17 10 33
14 36 5 3 9 16 9 30 0 16 4 23 11 18 9 -5 10 1 5 21 -6 22 -4 26 8 22 10 -4
16 -1 16 7 0 8 2 21 5 28 4 9 -4 19 -20 26 -21 10 -25 18 -25 57 0 38 3 45 20
45 17 0 20 7 20 40 0 31 4 40 18 40 9 0 37 18 61 40 l44 40 -40 0 c-21 0 -45
6 -52 12 -11 10 -14 10 -18 1 -3 -7 -10 -13 -16 -13 -6 0 0 11 13 25 32 34 14
32 -24 -2 -17 -15 -9 -5 18 24 32 34 54 49 64 45 10 -4 13 -1 8 7 -5 8 1 21
15 34 17 16 21 17 16 4 -3 -9 -2 -19 4 -22 5 -4 9 -12 7 -18 -4 -26 15 -78 34
-91 15 -11 19 -22 16 -41 -3 -15 -2 -23 2 -18 5 4 10 17 12 28 2 11 8 19 14
18 5 -1 9 38 9 88 0 84 -1 88 -20 83 -14 -4 -16 -3 -7 4 7 5 12 13 10 19 -4
11 82 103 96 103 6 0 5 -5 -1 -11 -15 -15 -5 -39 16 -39 12 0 13 2 3 9 -10 6
-4 14 23 31 32 20 34 23 19 35 -15 10 -8 12 39 10 l57 -1 -15 22 c-20 30 -19
40 1 23 15 -12 16 -11 10 9 -7 20 -4 22 36 22 45 0 93 -24 82 -41 -4 -6 -11
-6 -20 2 -8 7 -14 7 -14 1 0 -33 79 -7 80 26 0 7 4 10 10 7 12 -7 71 35 64 46
-2 4 0 10 6 14 6 4 8 10 5 15 -3 4 5 5 17 2 19 -5 20 -7 6 -10 -10 -2 -18 -8
-18 -13 0 -13 4 -12 44 12 39 22 50 37 15 18 -16 -8 -20 -8 -14 0 12 21 106
62 128 57 18 -5 18 -4 -3 7 -15 7 -25 21 -26 34 0 12 2 21 5 20 3 0 16 3 29 7
29 10 39 1 22 -19 -7 -8 -9 -15 -4 -15 5 0 2 -5 -6 -10 -24 -16 20 -13 51 4
14 7 43 16 63 20 27 5 36 11 32 22 -4 11 2 13 33 8 26 -4 41 -2 46 6 6 10 2
12 -15 7 -13 -3 -37 -3 -54 0 l-31 7 29 7 c17 5 48 4 72 -2 30 -8 52 -8 71 -1
25 9 26 11 6 11 -27 1 -31 27 -5 34 16 4 16 5 0 6 -10 0 -18 6 -18 12 0 8 11
9 33 4 37 -9 36 -9 185 -3 117 5 155 12 74 14 -25 1 -48 6 -50 13 -2 6 -8 8
-14 5 -6 -4 -14 0 -19 7 -13 21 -11 26 11 32 11 3 20 10 20 16 0 16 -29 13
-46 -4 -9 -8 -24 -15 -35 -15 -21 0 -27 -19 -6 -21 6 0 -1 -6 -18 -14 -25 -11
-27 -13 -10 -18 14 -3 10 -5 -11 -6 -16 0 -34 3 -40 8 -5 5 -31 12 -59 15 -35
4 -43 3 -25 -3 l25 -9 -25 -1 c-14 0 -32 4 -40 9 -17 11 -11 12 70 15 49 2
131 30 142 48 5 8 45 12 122 12 63 0 112 3 110 6 -2 4 13 3 34 -2 49 -11 60
-11 42 2 -13 9 -13 10 0 6 8 -2 14 -10 12 -17 -2 -9 7 -11 30 -6 18 3 56 2 83
-3 29 -5 39 -9 23 -10 -54 -2 -36 -20 28 -26 43 -5 69 -4 73 3 3 6 17 12 31
15 14 2 6 3 -17 1 -24 -2 -54 -6 -68 -10 -14 -3 -25 -2 -25 4 0 16 86 22 194
14 l101 -7 -70 -6 c-43 -3 -7 -5 95 -5 129 0 146 1 80 6 -69 5 -50 7 100 9
169 2 181 4 145 16 l-40 13 48 1 c27 1 68 -4 92 -10 29 -7 49 -8 61 -1 15 8 2
12 -56 18 -56 6 -69 9 -50 15 14 4 19 7 11 8 -8 1 -11 4 -8 7 4 4 13 1 21 -5
8 -7 34 -13 58 -14 23 -1 46 -5 49 -10 3 -4 19 -9 35 -12 37 -5 176 -54 188
-66 6 -6 3 -9 -8 -9 -9 0 -14 -5 -11 -10 4 -6 14 -10 23 -9 10 1 22 1 29 0 19
-2 74 -52 67 -62 -3 -5 -1 -9 4 -9 13 0 62 -47 62 -60 0 -5 -7 -10 -16 -10
-13 0 -13 -2 2 -17 10 -10 27 -23 38 -29 12 -5 20 -18 20 -27 -1 -9 2 -15 6
-12 4 3 27 -28 51 -68 24 -39 80 -117 124 -172 44 -56 88 -112 97 -125 l17
-25 0 23 c1 15 -28 60 -75 119 l-75 96 5 51 c11 109 16 647 7 762 -10 129 -8
147 33 261 33 89 37 187 10 229 -9 16 -45 58 -80 94 -39 42 -72 87 -89 127
-32 72 -58 93 -135 108 -52 11 -58 15 -120 91 -99 121 -200 218 -282 270 -40
26 -95 64 -123 84 -147 109 -448 228 -700 279 -55 11 -176 31 -270 46 -176 26
-337 53 -341 58 -1 1 2 29 8 62 5 33 8 105 5 160 -5 120 -48 262 -102 342 -19
29 -35 63 -35 76 0 36 -67 162 -101 191 -32 27 -101 36 -114 16 -3 -5 -10 -10
-14 -10 -9 0 -57 103 -95 205 -40 108 -81 183 -142 265 -104 137 -158 181
-269 219 -72 24 -292 35 -400 20z m597 -181 c80 -101 208 -330 208 -373 0 -7
15 -44 34 -81 19 -38 37 -77 40 -86 3 -9 54 -57 113 -107 158 -131 215 -215
249 -370 13 -57 15 -102 11 -195 -11 -229 -71 -365 -236 -538 -160 -168 -293
-245 -498 -290 -142 -31 -364 -31 -487 0 -153 38 -294 112 -398 209 -114 107
-197 318 -212 536 -4 63 -2 77 10 77 8 0 17 -7 20 -15 5 -12 9 -13 20 -4 12
10 13 9 8 -5 -3 -9 -1 -16 5 -16 6 0 12 6 12 13 1 6 3 21 5 32 1 11 5 35 8 53
4 23 -3 51 -20 90 -80 178 -135 401 -136 556 0 101 2 118 25 167 15 30 42 71
61 92 l34 38 44 -18 c23 -9 59 -26 78 -38 54 -32 92 -47 100 -38 4 4 17 41 29
81 12 39 24 72 27 72 4 0 28 -18 54 -40 26 -22 59 -44 73 -49 25 -10 27 -8 46
45 12 30 21 60 21 67 0 7 4 18 9 26 8 12 17 8 53 -20 63 -50 98 -71 112 -66 7
3 18 24 25 48 7 23 17 53 22 65 l8 23 57 -34 c32 -19 62 -35 66 -35 11 0 47
79 48 103 0 25 8 22 63 -30 37 -34 52 -43 55 -33 3 8 15 39 28 68 22 51 25 53
56 48 18 -3 40 -15 50 -28z m438 -560 c19 -22 90 -158 90 -172 0 -4 -10 3 -22
16 -13 13 -54 50 -93 82 -109 92 -102 85 -85 97 25 16 88 3 110 -23z m-1706
-487 c41 -36 64 -93 65 -163 0 -38 -2 -68 -4 -68 -3 0 -12 17 -20 38 -48 113
-155 138 -179 42 -3 -14 -3 -19 0 -12 3 6 10 10 15 6 5 -3 17 3 27 12 16 17
16 18 0 11 -10 -3 -18 -2 -18 3 0 5 12 13 26 16 43 11 84 -31 122 -126 14 -33
23 -138 13 -145 -13 -7 -44 32 -35 46 4 7 3 10 -3 6 -6 -4 -16 0 -23 8 -7 8
-9 15 -5 15 4 0 2 6 -4 14 -10 11 -9 26 3 67 19 63 19 56 2 62 -10 4 -13 1 -9
-9 3 -8 -1 -14 -11 -14 -20 0 -30 -40 -22 -83 4 -17 7 -43 8 -57 0 -14 3 -19
5 -12 4 10 9 8 20 -7 11 -16 11 -26 3 -43 -11 -22 -10 -22 4 -4 9 11 17 17 17
13 5 -25 4 -33 -6 -40 -6 -5 -4 -7 5 -4 8 2 14 10 12 16 -2 12 11 15 21 4 4
-3 0 -15 -10 -25 -9 -10 -11 -18 -5 -18 6 0 17 10 23 22 12 22 12 22 20 3 7
-19 8 -19 8 2 2 43 20 33 27 -14 3 -27 11 -56 16 -67 8 -14 7 -17 -4 -13 -7 2
-12 10 -10 16 1 7 -2 10 -8 6 -22 -14 -155 98 -146 122 3 8 2 12 -3 9 -35 -22
-117 195 -104 278 6 43 34 89 63 103 28 14 78 7 104 -16z m-33 -242 c-9 -22
-10 -22 -10 -3 -1 11 2 24 6 27 12 12 14 0 4 -24z m2309 -164 c231 -35 369
-65 520 -116 139 -46 325 -130 398 -180 26 -18 91 -62 144 -98 100 -69 200
-157 256 -228 39 -50 41 -61 5 -38 -21 14 -38 16 -92 10 -81 -9 -139 -9 -212
0 -87 11 -117 -4 -219 -107 -48 -49 -103 -112 -121 -139 -31 -45 -49 -60 -49
-41 0 4 -47 57 -105 117 -57 61 -122 133 -142 161 -23 32 -51 56 -71 64 -25 9
-33 17 -29 30 4 14 -2 17 -32 15 -20 -1 -37 -3 -38 -4 -4 -2 48 -51 54 -51 14
0 73 -65 73 -80 0 -9 4 -20 9 -25 5 -6 24 -37 42 -70 18 -33 43 -74 56 -91 19
-26 22 -36 13 -58 -9 -25 -13 -26 -79 -26 -72 0 -267 -26 -406 -55 -237 -49
-576 -151 -835 -252 -197 -77 -546 -240 -725 -341 -44 -24 -98 -54 -120 -66
-22 -11 -59 -39 -83 -61 -24 -22 -47 -41 -51 -43 -5 -2 -9 37 -10 85 -1 48 -6
114 -13 146 -6 31 -8 75 -5 97 3 22 1 40 -4 40 -5 0 -3 13 6 30 23 44 18 49
-14 13 l-29 -33 -7 -214 -7 -215 -32 5 c-79 13 -135 28 -188 50 -44 18 -76 24
-135 24 -68 0 -85 -4 -129 -29 -28 -17 -82 -64 -119 -105 -37 -42 -73 -76 -79
-76 -26 0 -94 -71 -126 -131 -28 -53 -34 -76 -40 -163 -4 -55 -13 -114 -19
-129 -19 -48 -13 -141 13 -211 13 -35 21 -68 16 -72 -9 -11 -60 -171 -60 -191
0 -7 -3 -13 -6 -13 -10 0 -43 44 -44 59 0 8 -6 19 -14 25 -18 14 -72 154 -90
234 -12 50 -13 94 -5 220 5 86 13 256 19 377 12 259 29 363 85 530 27 78 105
223 148 275 15 17 27 35 27 38 0 4 32 40 70 81 39 40 102 117 142 171 l72 98
90 27 90 26 230 -6 c157 -5 236 -11 246 -20 8 -6 47 -30 86 -52 112 -63 229
-96 386 -109 103 -8 97 4 -9 17 -147 18 -259 53 -363 113 -43 25 -32 30 20 9
28 -12 221 -32 320 -34 66 -2 208 20 310 48 65 17 226 91 218 99 -4 3 -20 -2
-37 -11 -17 -8 -31 -13 -31 -9 0 4 -6 2 -12 -3 -7 -5 -33 -17 -58 -26 -145
-52 -331 -71 -422 -44 -29 8 -81 21 -115 28 -34 7 -60 16 -57 20 2 4 37 12 77
19 39 6 90 15 112 20 22 5 78 12 125 15 165 12 339 72 467 161 35 24 66 44 69
44 4 0 43 35 86 78 73 71 155 189 173 250 3 12 11 22 16 22 12 0 12 -17 -1
-25 -5 -3 -10 -15 -10 -25 0 -35 -106 -261 -139 -297 -12 -12 -21 -26 -21 -32
0 -5 -7 -12 -16 -15 -9 -4 -14 -9 -10 -13 7 -8 -23 -43 -37 -43 -5 0 -17 -8
-26 -19 -9 -10 -38 -32 -66 -49 -27 -18 -43 -32 -34 -32 9 0 35 14 58 30 23
17 46 28 52 25 5 -4 8 -2 7 3 -2 5 18 27 43 48 42 35 75 69 139 144 16 20 15
12 -9 -36 -41 -84 -80 -141 -140 -201 -28 -29 -47 -54 -42 -57 7 -5 100 91
122 127 4 5 12 6 19 2 9 -5 11 -4 6 4 -4 6 2 26 13 45 30 48 93 188 82 181 -6
-3 7 32 29 77 21 46 46 109 56 141 23 73 81 132 123 124 14 -3 105 -17 201
-32z m1068 -681 c38 -8 45 -25 27 -61 -8 -15 -15 -23 -15 -16 0 7 -9 9 -22 5
l-22 -5 22 -8 c23 -9 29 -24 13 -33 -5 -4 -12 0 -15 6 -4 7 -4 2 -2 -11 6 -30
-23 -141 -37 -141 -5 0 -7 -7 -3 -15 5 -15 -21 -129 -46 -197 -11 -28 -17 -35
-28 -27 -13 8 -13 10 0 18 12 8 11 11 -5 16 -11 4 -28 11 -37 16 -12 6 -18 6
-18 -1 0 -5 10 -15 22 -21 39 -21 2 -21 -39 -1 -97 50 -110 129 -56 325 16 58
73 129 118 148 24 9 101 11 143 3z m274 -21 c32 -28 84 -54 122 -59 86 -11
111 -28 140 -97 17 -42 66 -107 135 -179 42 -45 45 -52 49 -112 7 -109 -52
-256 -103 -256 -13 0 -27 -4 -30 -10 -3 -5 -13 -10 -21 -10 -8 0 -12 5 -9 10
3 6 1 10 -4 10 -6 0 -11 -6 -11 -12 0 -9 -3 -8 -9 2 -16 24 -1 32 48 27 25 -2
36 -2 24 0 -29 6 -53 33 -29 33 10 0 26 -5 37 -10 20 -11 28 3 9 15 -5 3 -10
13 -10 21 0 9 5 12 12 8 8 -5 9 -2 5 10 -4 10 -7 24 -7 32 0 10 -12 14 -40 14
-31 0 -40 4 -41 18 0 14 -2 14 -8 -3 -5 -11 -4 -33 2 -48 5 -15 7 -31 3 -34
-3 -4 -6 1 -6 10 0 9 -5 19 -10 22 -7 4 -8 -8 -4 -34 4 -28 3 -41 -5 -41 -15
0 -14 -33 2 -50 7 -8 2 -7 -15 3 -15 9 -34 17 -42 17 -8 0 -17 4 -21 9 -8 15
17 62 31 57 8 -3 10 3 7 17 -4 20 -3 20 7 4 13 -20 6 -37 -15 -37 -9 0 -12 -6
-8 -17 5 -12 3 -14 -7 -8 -9 5 -11 4 -6 -4 5 -8 16 -5 37 9 29 22 37 44 19 55
-5 3 -10 18 -10 33 0 19 3 23 9 14 7 -11 9 -11 14 2 4 9 2 16 -2 16 -5 0 -7
10 -4 23 7 24 33 67 33 52 0 -5 22 13 49 39 37 36 54 47 68 42 17 -7 17 -6 1
11 -17 16 -18 16 -32 -2 -12 -17 -14 -15 -29 26 l-16 44 5 -40 c5 -39 5 -40
-10 -15 -20 33 -20 49 2 73 9 11 11 17 5 13 -9 -5 -13 1 -13 18 0 19 -4 24
-15 20 -9 -4 -15 -11 -14 -18 5 -41 -2 -56 -26 -56 -18 0 -23 -4 -18 -16 5
-13 7 -13 14 -2 11 16 10 -12 0 -57 l-8 -30 -12 45 c-18 62 -27 70 -75 68
l-41 -1 44 -6 c42 -6 45 -8 57 -51 17 -56 17 -61 0 -32 -12 23 -13 21 -14 -22
-1 -25 2 -46 7 -46 5 0 7 10 5 23 -4 20 -4 20 6 -3 7 -16 8 -32 2 -45 -5 -11
-14 -32 -20 -47 -8 -18 -16 -25 -29 -22 -10 3 -27 -2 -38 -10 -11 -9 -14 -16
-7 -16 18 0 15 -13 -8 -38 -14 -14 -16 -22 -8 -22 7 -1 -9 -12 -35 -26 -27
-14 -58 -23 -70 -21 -18 4 -17 5 5 6 15 0 30 6 33 12 4 6 17 14 29 19 16 7 17
9 4 9 -9 1 -24 -6 -32 -15 -19 -18 -122 -16 -138 3 -13 16 -1 34 18 26 13 -5
13 -8 2 -15 -10 -8 -10 -9 2 -5 8 2 15 9 15 15 0 5 3 14 8 18 4 4 7 0 7 -8 0
-15 27 -28 59 -28 11 0 11 3 -3 13 -19 14 -13 47 10 47 16 0 19 36 4 45 -5 3
-11 27 -11 53 -1 30 -3 36 -6 17 -7 -59 -25 -100 -48 -111 -31 -15 -54 -2 -36
20 7 9 16 14 20 12 4 -3 13 0 21 6 12 8 11 9 -4 4 -14 -5 -17 -3 -11 11 4 10
10 32 13 48 l6 30 8 -35 c5 -26 6 -21 3 20 -3 37 -1 50 5 40 9 -13 10 -13 10
0 1 10 7 7 22 -10 15 -17 19 -19 15 -7 -4 10 -7 25 -7 33 0 9 -4 12 -10 9 -13
-8 -13 5 0 25 8 12 10 12 10 1 0 -8 2 -12 5 -9 9 8 -6 38 -16 32 -5 -3 -9 -1
-9 5 0 5 4 12 9 15 4 3 11 24 15 46 3 22 11 40 17 40 6 0 9 7 5 15 -3 8 1 33
9 56 17 46 15 52 -7 44 -9 -4 -22 -27 -29 -52 -12 -44 -13 -45 -22 -22 -5 13
-13 32 -19 42 -7 14 -5 24 8 38 9 11 14 22 10 27 -4 4 -16 -4 -27 -17 l-19
-24 2 34 c3 31 0 34 -27 37 -16 2 -34 7 -40 12 -5 4 -19 4 -29 1 -17 -7 -18
-8 -3 -14 12 -4 17 -18 17 -42 0 -35 0 -35 43 -35 40 0 44 -3 59 -37 12 -24
14 -42 8 -52 -8 -13 -10 -11 -11 9 l-1 25 -8 -25 c-11 -34 -12 -102 -2 -96 5
3 7 20 5 38 -3 23 -2 29 5 19 8 -11 11 -9 17 8 4 13 9 20 12 18 2 -3 -1 -16
-9 -29 -7 -12 -14 -30 -15 -38 -4 -33 -58 -195 -65 -198 -4 -2 -8 -10 -8 -18
0 -8 -4 -14 -10 -14 -5 0 -10 -7 -10 -16 0 -8 -4 -13 -9 -10 -5 3 -11 -3 -14
-14 -4 -16 -13 -20 -39 -18 -32 2 -69 26 -58 38 10 10 -49 11 -69 1 -15 -8
-20 -7 -25 5 -10 27 -7 94 5 94 6 0 9 9 6 20 -3 13 -1 18 5 13 8 -4 9 5 5 28
-5 24 -4 30 3 19 13 -20 13 -57 -1 -82 -7 -13 -7 -18 -1 -14 6 3 12 -2 15 -11
2 -10 4 17 4 59 0 42 -4 75 -9 72 -11 -7 2 49 13 56 4 3 9 19 12 35 3 27 4 25
6 -10 3 -36 4 -37 11 -15 13 42 12 70 -4 64 -10 -4 -6 17 13 74 15 43 25 84
23 90 -2 7 0 12 5 12 5 0 7 18 5 39 -4 39 -4 40 35 44 85 10 161 2 185 -20z
m-573 -165 c-4 -24 -8 -47 -9 -51 0 -6 -83 -47 -96 -47 -2 0 19 32 47 70 28
39 54 70 58 70 5 0 5 -19 0 -42z m-17 -163 c0 -41 1 -79 2 -84 1 -11 -62 -59
-201 -154 -125 -85 -453 -297 -459 -297 -2 0 -30 -17 -62 -39 -31 -21 -99 -62
-151 -90 -51 -29 -100 -56 -110 -61 -79 -44 -296 -135 -406 -170 -171 -54
-269 -72 -815 -149 -159 -23 -453 -46 -475 -38 -8 4 -15 14 -15 24 0 10 -20
47 -45 83 l-44 65 62 19 c34 10 76 25 92 32 17 6 53 19 80 27 28 9 237 79 465
157 228 78 440 150 470 160 62 20 330 115 520 184 69 24 190 68 270 96 80 28
154 56 165 61 11 4 110 42 220 83 110 41 250 95 310 120 61 25 113 45 118 46
4 0 8 -34 9 -75z m888 -60 c0 -8 -4 -15 -10 -15 -5 0 -10 7 -10 15 0 8 5 15
10 15 6 0 10 -7 10 -15z m-943 -115 c-19 -16 -37 -30 -41 -30 -9 0 57 59 67
60 4 0 -8 -13 -26 -30z m393 -92 c0 -6 -10 -8 -22 -4 -13 3 -27 6 -31 6 -5 0
-6 4 -3 9 7 11 56 2 56 -11z m420 7 c0 -9 -6 -12 -15 -9 -8 4 -15 10 -15 15 0
5 7 9 15 9 8 0 15 -7 15 -15z m-240 -37 c0 -5 -6 -8 -12 -5 -7 2 -22 0 -33 -6
-20 -10 -20 -9 -2 11 18 20 47 20 47 0z m225 12 c3 -5 1 -10 -4 -10 -6 0 -11
5 -11 10 0 6 2 10 4 10 3 0 8 -4 11 -10z m-1005 -40 c0 -5 -5 -10 -11 -10 -5
0 -7 5 -4 10 3 6 8 10 11 10 2 0 4 -4 4 -10z m-30 -20 c0 -5 -4 -10 -9 -10 -6
0 -40 -23 -77 -51 -37 -27 -95 -70 -130 -93 -35 -24 -60 -47 -56 -51 4 -4 2
-5 -3 -3 -9 3 -112 -57 -125 -72 -3 -4 -20 -15 -37 -25 -18 -11 -33 -23 -33
-27 0 -4 -5 -8 -10 -8 -6 0 -20 -8 -30 -18 -11 -10 -40 -29 -65 -41 -26 -13
-42 -27 -39 -33 4 -7 2 -8 -5 -4 -12 8 -82 -14 -76 -23 2 -3 -7 -7 -18 -7 -12
-1 -51 -14 -87 -29 -36 -15 -90 -34 -120 -42 -88 -22 -193 -43 -198 -39 -2 2
11 7 29 11 49 11 291 110 399 162 52 26 155 83 229 128 73 44 150 89 170 100
20 11 41 25 47 30 26 22 226 153 237 154 4 1 7 -3 7 -9z m1045 -134 c68 -12
70 -13 82 -49 27 -81 65 -302 83 -482 19 -187 23 -254 13 -225 -15 46 -52 130
-108 242 -35 70 -76 163 -90 205 -15 43 -33 92 -40 108 -7 17 -21 50 -31 75
-10 25 -21 47 -24 50 -9 7 -30 69 -30 88 0 11 8 13 38 7 20 -4 69 -13 107 -19z
m228 -73 c6 -61 -3 -436 -11 -428 -3 2 -8 44 -13 93 -9 98 -42 273 -63 339 -8
23 -12 44 -8 47 3 3 24 6 47 6 l42 0 6 -57z m-3910 -201 c28 -19 111 -137 123
-175 4 -12 19 -38 34 -57 40 -51 52 -79 44 -98 -14 -33 -13 -48 2 -28 13 18
14 16 14 -28 0 -82 -47 -123 -135 -118 -24 2 -27 0 -15 -9 12 -8 9 -9 -13 -4
-27 5 -247 181 -247 196 0 15 21 20 36 9 11 -10 12 -16 3 -26 -8 -10 -8 -14
-1 -14 16 0 23 16 16 34 -8 22 -42 30 -61 14 -14 -11 -23 -5 -70 47 -29 32
-52 64 -49 71 3 7 -2 15 -10 18 -9 4 -14 -1 -14 -15 0 -11 -7 -34 -16 -50 -8
-17 -13 -33 -10 -37 3 -3 6 1 7 9 0 9 4 6 10 -6 8 -17 9 -17 5 5 -3 14 -1 31
3 39 7 11 11 9 20 -7 6 -11 9 -27 8 -34 -2 -7 -2 -10 0 -6 2 3 32 -21 67 -55
34 -34 76 -73 93 -85 21 -16 30 -30 28 -43 -2 -11 0 -17 6 -14 5 4 7 11 4 16
-13 20 15 7 33 -16 11 -13 23 -21 27 -17 4 4 6 0 3 -8 -3 -8 -13 -14 -23 -13
-12 1 -14 -2 -6 -10 7 -7 15 -6 26 3 11 9 19 10 23 3 4 -5 18 -16 31 -23 19
-10 21 -14 10 -22 -10 -7 -8 -7 9 -3 26 7 42 -19 23 -38 -6 -6 -11 -16 -11
-21 0 -6 5 -4 10 4 8 11 9 7 4 -15 -10 -44 -29 -76 -63 -110 -26 -24 -30 -35
-25 -58 9 -44 -5 -127 -23 -127 -8 0 -12 -4 -8 -9 7 -12 -31 -25 -45 -16 -6 4
-10 3 -9 -2 5 -29 -3 -33 -77 -33 -44 0 -73 4 -69 9 3 6 -3 9 -12 9 -25 -1
-233 73 -233 82 0 5 6 11 13 14 6 3 2 3 -10 1 -18 -5 -25 3 -47 51 -15 31 -29
75 -33 96 -6 39 14 178 26 178 3 0 13 -13 22 -28 9 -16 37 -43 63 -60 26 -18
45 -28 42 -23 -3 5 3 7 14 4 11 -3 23 -9 26 -14 3 -5 15 -9 27 -9 12 0 33 -6
47 -13 14 -7 46 -21 73 -31 26 -10 45 -21 43 -24 -2 -4 6 -8 17 -9 12 0 51 -4
87 -8 58 -7 63 -6 50 7 -8 9 -37 21 -65 27 -27 7 -79 25 -115 41 -36 15 -87
35 -115 44 -103 33 -135 48 -135 62 0 7 -6 11 -13 8 -7 -2 -24 10 -37 28 -62
82 3 275 112 335 26 14 68 51 94 84 46 57 128 121 169 132 51 12 141 6 168
-11z m152 -54 c135 -27 142 -35 50 -65 l-66 -21 -26 41 c-14 23 -31 48 -37 56
-9 12 -7 13 9 7 11 -4 43 -12 70 -18z m2890 1 c50 -6 105 -11 123 -11 40 0 40
-3 2 -23 -18 -9 -56 -15 -105 -15 -41 0 -75 -4 -75 -9 0 -5 18 -7 40 -4 27 4
40 2 40 -6 0 -18 -422 -11 -428 7 -4 13 -52 17 -52 3 0 -13 -68 -21 -93 -11
-17 7 -18 9 -4 9 9 1 17 4 17 7 0 26 -73 45 -84 22 -5 -10 -7 -10 -12 0 -3 6
-15 12 -25 12 -11 0 -17 -4 -14 -10 4 -6 -6 -10 -22 -10 -22 0 -25 2 -13 10
19 12 4 13 -38 1 -20 -6 -32 -6 -32 0 0 5 12 10 28 11 15 0 38 2 52 4 14 1 72
6 130 9 58 4 107 9 109 11 10 9 372 3 456 -7z m-810 -36 c-11 -3 -23 -9 -26
-14 -3 -6 -14 -6 -25 -2 -17 6 -17 8 6 14 14 4 34 7 45 7 l20 0 -20 -5z m82
-9 c-3 -3 -12 -4 -19 -1 -8 3 -5 6 6 6 11 1 17 -2 13 -5z m98 -4 c3 -5 -3 -10
-15 -10 -12 0 -18 5 -15 10 3 6 10 10 15 10 5 0 12 -4 15 -10z m35 0 c0 -5 -4
-10 -10 -10 -5 0 -10 5 -10 10 0 6 5 10 10 10 6 0 10 -4 10 -10z m-693 -126
c-3 -3 -12 -4 -19 -1 -8 3 -5 6 6 6 11 1 17 -2 13 -5z m-67 -12 c0 -5 -12 -13
-27 -20 l-28 -12 30 6 c24 4 27 2 15 -7 -12 -9 -11 -10 8 -6 18 4 22 1 22 -19
0 -20 -5 -24 -30 -24 -16 0 -30 -4 -30 -10 0 -5 -4 -10 -10 -10 -5 0 -10 7
-10 15 0 10 10 15 32 15 31 0 32 0 11 15 -11 8 -34 16 -51 17 -17 1 -28 6 -25
11 3 4 11 6 19 3 8 -3 14 -2 14 2 0 5 12 13 28 19 15 6 28 11 30 12 1 1 2 -3
2 -7z m100 -12 c0 -5 -2 -10 -4 -10 -3 0 -8 5 -11 10 -3 6 -1 10 4 10 6 0 11
-4 11 -10z m-255 -90 c2 -4 -8 -7 -23 -7 -15 0 -45 -4 -67 -7 -47 -8 -43 -1
11 17 38 14 70 12 79 -3z m-55 -35 c-11 -14 -10 -14 14 -5 47 17 43 10 -7 -15
-26 -13 -61 -27 -78 -30 -18 -4 -34 -16 -39 -30 -9 -23 -38 -41 -49 -29 -3 4
0 9 7 11 8 3 6 10 -8 21 -23 19 -18 29 29 62 26 18 33 20 29 8 -9 -23 1 -29
26 -15 17 9 63 29 85 36 2 0 -2 -6 -9 -14z m-170 -92 c0 -7 -6 -13 -12 -13 -9
0 -8 -3 2 -10 21 -13 5 -24 -17 -12 -12 7 -25 7 -34 1 -10 -6 -7 -9 14 -9 15
0 27 -4 27 -10 0 -13 -19 -12 -55 4 l-30 14 43 20 c25 11 39 23 33 26 -6 4
-11 11 -11 17 0 5 9 4 20 -3 11 -7 20 -18 20 -25z m-53 1 c-3 -3 -12 -4 -19
-1 -8 3 -5 6 6 6 11 1 17 -2 13 -5z m-47 -19 c-7 -8 -17 -15 -23 -15 -6 0 -2
7 9 15 25 19 30 19 14 0z m-92 -94 c3 -8 -1 -12 -9 -9 -7 2 -15 10 -17 17 -3
8 1 12 9 9 7 -2 15 -10 17 -17z m-78 -41 c0 -5 -7 -10 -16 -10 -8 0 -12 5 -9
10 3 6 10 10 16 10 5 0 9 -4 9 -10z m-988 -203 c11 -137 37 -401 42 -422 3
-11 7 -36 10 -55 l5 -35 -20 38 c-61 116 -98 248 -100 365 -2 48 40 207 50
196 3 -3 9 -42 13 -87z m813 73 c-3 -5 -12 -10 -18 -10 -7 0 -6 4 3 10 19 12
23 12 15 0z m-1347 -181 c22 -7 29 -15 25 -27 -4 -15 -3 -15 6 -2 9 13 14 13
42 -2 17 -10 39 -18 49 -18 10 0 21 -4 24 -9 12 -18 126 -34 172 -24 l44 10 6
-33 c7 -38 0 -64 -16 -64 -6 0 -8 5 -5 10 3 6 1 10 -4 10 -6 0 -11 -8 -11 -18
0 -11 -8 -28 -18 -40 -51 -59 -290 29 -318 118 -9 26 -9 37 0 42 7 5 5 8 -6 8
-10 0 -18 4 -18 9 0 5 -3 16 -6 25 -7 19 -6 19 34 5z m1142 -19 c-11 -7 -11
-11 -1 -24 16 -19 6 -21 -13 -3 -12 10 -12 15 2 30 8 9 18 15 21 12 3 -4 -1
-10 -9 -15z m-27 -60 c-3 -10 -11 -25 -19 -31 -20 -16 -17 -27 9 -32 19 -4 19
-4 -5 -6 -31 -1 -37 -14 -30 -58 5 -34 -3 -40 -28 -22 -11 8 -12 12 -2 16 6 2
12 10 12 16 -1 7 -9 2 -19 -10 -24 -29 -35 -30 -19 -1 17 29 38 52 38 41 0
-10 20 19 20 30 0 5 -4 5 -10 2 -6 -3 -7 1 -4 9 3 9 10 16 16 16 5 0 14 13 19
30 12 32 30 33 22 0z m27 -30 c0 -5 -4 -10 -10 -10 -5 0 -10 5 -10 10 0 6 5
10 10 10 6 0 10 -4 10 -10z m-164 -186 c-4 -9 -9 -15 -11 -12 -3 3 -3 13 1 22
4 9 9 15 11 12 3 -3 3 -13 -1 -22z m-6 -43 c0 -6 -4 -13 -10 -16 -5 -3 -10
-18 -10 -32 0 -14 -12 -39 -26 -57 -25 -29 -26 -29 -19 -6 4 14 12 27 16 28 5
2 9 12 9 22 0 24 21 70 32 70 4 0 8 -4 8 -9z m140 -71 c0 -11 -4 -20 -10 -20
-5 0 -10 9 -10 20 0 11 5 20 10 20 6 0 10 -9 10 -20z m-123 -22 c-3 -8 -6 -5
-6 6 -1 11 2 17 5 13 3 -3 4 -12 1 -19z m-100 -115 c-3 -10 -5 -4 -5 12 0 17
2 24 5 18 2 -7 2 -21 0 -30z m55 5 c-8 -8 -9 -4 -5 13 4 13 8 18 11 10 2 -7
-1 -18 -6 -23z"/>
<path d="M2010 4567 c-129 -75 -285 -185 -276 -195 3 -2 20 6 38 20 18 14 43
30 56 37 23 12 23 12 11 -11 -22 -41 -16 -136 14 -202 15 -32 27 -59 27 -60 0
0 -27 -1 -60 -2 -56 0 -65 14 -10 17 24 1 23 1 -5 10 -66 21 -205 3 -205 -27
0 -7 -7 -17 -15 -22 -10 -5 -13 -15 -9 -25 7 -19 20 -22 29 -7 3 6 12 10 18
10 7 0 0 -11 -15 -24 -55 -49 -72 -119 -43 -176 24 -46 62 -60 160 -60 48 0
95 -4 105 -10 10 -5 31 -35 47 -65 33 -67 43 -57 12 14 -25 60 -21 84 24 131
19 19 39 45 45 57 17 31 15 103 -3 123 -14 15 -11 16 26 16 24 0 58 10 85 24
87 48 104 145 47 267 -23 47 -56 79 -116 110 -17 9 -12 15 37 47 48 32 65 46
54 46 -2 0 -37 -20 -78 -43z m10 -84 c68 -48 95 -90 111 -178 12 -67 -3 -101
-64 -146 -35 -26 -49 -30 -84 -26 -24 2 -54 12 -69 22 -53 34 -89 175 -64 249
14 44 79 96 119 96 15 0 38 -8 51 -17z m-105 -367 c56 -36 55 -107 -1 -161
-50 -49 -118 -77 -201 -83 -83 -5 -112 7 -133 57 -37 90 53 179 200 199 82 11
103 9 135 -12z m-310 4 c-3 -5 -11 -10 -16 -10 -6 0 -7 5 -4 10 3 6 11 10 16
10 6 0 7 -4 4 -10z"/>
<path d="M1909 4391 c-23 -24 -29 -38 -29 -73 0 -104 41 -168 108 -168 57 0
92 40 92 106 -1 27 -6 59 -13 72 l-13 23 -14 -26 c-7 -14 -17 -25 -21 -25 -13
0 -18 42 -8 68 12 30 5 37 -39 46 -28 5 -38 1 -63 -23z m75 -60 c10 -11 20
-38 23 -60 4 -32 2 -42 -11 -47 -24 -9 -45 15 -53 59 -10 62 9 84 41 48z m-54
-28 c-1 -28 -3 -34 -10 -22 -8 14 -3 59 6 59 2 0 4 -17 4 -37z"/>
<path d="M1099 4339 c-147 -14 -169 -31 -31 -23 61 3 112 4 112 2 0 -3 -7 -26
-16 -52 -32 -94 -2 -225 70 -301 59 -62 170 -58 240 9 34 32 35 35 31 94 -4
77 -39 155 -95 216 l-42 46 58 -6 c55 -5 112 1 102 12 -10 9 -337 12 -429 3z
m272 -40 c95 -68 155 -263 97 -316 -37 -33 -64 -43 -119 -43 -71 0 -108 25
-145 97 -51 102 -44 246 14 278 36 19 115 11 153 -16z"/>
<path d="M1260 4210 c-11 -11 -22 -32 -26 -47 -3 -16 -7 -33 -9 -39 -7 -22 16
-96 37 -125 43 -58 148 -60 179 -3 14 28 18 87 6 117 -6 15 -10 16 -27 5 -17
-11 -22 -10 -30 2 -13 20 -12 47 0 70 8 15 6 21 -9 30 -33 17 -99 12 -121 -10z
m29 -97 c0 -36 -2 -43 -9 -27 -7 18 -3 74 6 74 2 0 4 -21 3 -47z m69 26 c18
-18 32 -61 32 -94 0 -6 -11 -17 -25 -23 -14 -6 -24 -8 -23 -4 1 4 -6 21 -15
39 -9 18 -17 45 -17 61 0 47 18 55 48 21z"/>
<path d="M2211 4154 c-19 -8 -31 -17 -28 -21 4 -3 12 -1 20 5 7 6 35 15 62 20
44 9 46 10 15 10 -19 1 -50 -5 -69 -14z"/>
<path d="M2253 4129 c-18 -5 -33 -12 -33 -15 0 -8 63 6 75 17 11 11 1 10 -42
-2z"/>
<path d="M1111 3840 c-65 -30 -45 -33 25 -5 32 14 50 25 39 25 -11 0 -40 -9
-64 -20z"/>
<path d="M1162 3809 c-24 -12 -41 -23 -38 -26 2 -2 26 7 53 21 58 30 46 35
-15 5z"/>
<path d="M2180 3603 c-68 -10 -118 -26 -152 -49 -59 -38 -44 -46 23 -11 52 27
76 32 180 41 97 8 122 7 129 -4 4 -7 13 -9 19 -6 17 11 13 25 -6 24 -10 0 -52
2 -93 4 -41 3 -86 4 -100 1z"/>
<path d="M1790 3506 c-75 -16 -155 -57 -217 -111 -60 -52 -127 -142 -113 -150
13 -8 32 4 24 16 -3 5 27 43 68 83 86 85 168 129 276 147 40 7 72 16 72 20 0
12 -43 10 -110 -5z"/>
<path d="M731 3488 c1 -55 5 -50 11 15 2 20 0 37 -4 37 -4 0 -7 -24 -7 -52z"/>
<path d="M746 3424 c-4 -14 -5 -28 -3 -31 3 -2 8 8 11 23 4 14 5 28 3 31 -3 2
-8 -8 -11 -23z"/>
<path d="M1200 2079 c-16 -30 -8 -31 13 -3 10 13 13 24 8 24 -6 0 -15 -9 -21
-21z"/>
<path d="M1216 2055 c-10 -14 -21 -23 -25 -21 -4 3 -7 -3 -7 -12 -1 -9 -5 -26
-9 -37 -5 -11 8 4 29 34 37 54 46 81 12 36z"/>
<path d="M1245 2037 c-29 -36 -37 -48 -60 -101 -25 -57 -19 -71 8 -18 7 15 28
51 45 80 28 47 32 70 7 39z"/>
<path d="M4118 2573 c7 -3 16 -2 19 1 4 3 -2 6 -13 5 -11 0 -14 -3 -6 -6z"/>
<path d="M3983 2515 c-3 -9 -3 -18 -1 -21 3 -3 8 4 11 16 6 23 -1 27 -10 5z"/>
<path d="M3960 2460 c0 -6 4 -9 9 -5 5 3 12 -2 14 -10 4 -12 5 -12 3 1 -1 19
-26 32 -26 14z"/>
<path d="M4122 2415 c0 -16 2 -22 5 -12 2 9 2 23 0 30 -3 6 -5 -1 -5 -18z"/>
<path d="M3951 2403 c0 -6 -4 -20 -7 -30 -5 -14 -4 -15 5 -7 7 7 11 20 8 30
-3 11 -5 14 -6 7z"/>
<path d="M3977 2366 c-5 -34 -3 -54 5 -64 7 -8 15 -35 18 -60 5 -46 5 -46 45
-49 l40 -2 -3 44 c-4 45 -4 45 -43 45 -41 0 -44 6 -51 100 -3 32 -4 31 -11
-14z"/>
<path d="M4080 2375 c0 -8 5 -15 10 -15 6 0 10 -11 10 -25 0 -14 5 -25 11 -25
6 0 8 7 5 16 -3 9 -9 27 -12 40 -7 26 -24 33 -24 9z"/>
<path d="M3940 2331 c0 -12 5 -21 10 -21 6 0 10 6 10 14 0 8 -4 18 -10 21 -5
3 -10 -3 -10 -14z"/>
<path d="M4082 2325 c0 -11 4 -33 8 -50 l8 -30 0 30 c0 17 -3 39 -8 50 l-9 20
1 -20z"/>
<path d="M3946 2183 c12 -12 16 -12 28 0 12 12 10 14 -14 14 -24 0 -26 -2 -14
-14z"/>
<path d="M4038 2173 c6 -2 18 -2 25 0 6 3 1 5 -13 5 -14 0 -19 -2 -12 -5z"/>
<path d="M4219 2471 c-4 -24 -6 -92 -2 -77 4 15 7 16 15 5 7 -10 8 -6 4 14 -5
22 -3 27 13 27 27 0 20 33 -7 35 -12 1 -22 -1 -23 -4z"/>
<path d="M4475 2470 c-3 -5 -1 -10 4 -10 6 0 11 5 11 10 0 6 -2 10 -4 10 -3 0
-8 -4 -11 -10z"/>
<path d="M4446 2442 c-3 -5 -2 -19 1 -32 6 -22 7 -23 14 -4 4 10 8 25 8 32 1
14 -15 16 -23 4z"/>
<path d="M4531 2434 c0 -11 3 -14 6 -6 3 7 2 16 -1 19 -3 4 -6 -2 -5 -13z"/>
<path d="M4554 2424 c-3 -10 -10 -29 -14 -41 -11 -26 6 -42 23 -23 9 10 9 11
0 6 -16 -9 -16 4 -3 40 6 15 8 29 6 32 -3 3 -8 -4 -12 -14z"/>
<path d="M4580 2396 c0 -11 9 -16 26 -16 31 0 28 23 -4 28 -15 2 -22 -2 -22
-12z"/>
<path d="M4650 2391 c0 -14 28 -33 42 -28 8 4 7 6 -4 6 -10 1 -18 8 -18 16 0
8 -4 15 -10 15 -5 0 -10 -4 -10 -9z"/>
<path d="M4208 2320 c-2 -22 0 -40 4 -40 5 0 8 11 8 24 0 13 3 31 6 40 3 9 2
16 -4 16 -5 0 -12 -18 -14 -40z"/>
<path d="M4500 2324 c0 -9 5 -14 12 -12 18 6 21 28 4 28 -9 0 -16 -7 -16 -16z"/>
<path d="M4537 2310 c-16 -16 -23 -30 -17 -30 14 0 40 25 40 39 0 5 17 12 38
14 l37 4 -35 1 c-27 2 -41 -5 -63 -28z"/>
<path d="M4232 2305 c0 -16 2 -22 5 -12 2 9 2 23 0 30 -3 6 -5 -1 -5 -18z"/>
<path d="M4790 2234 c0 -8 5 -12 10 -9 6 3 10 10 10 16 0 5 -4 9 -10 9 -5 0
-10 -7 -10 -16z"/>
<path d="M4325 2178 c-2 -13 -4 -32 -2 -43 3 -24 25 -50 35 -40 4 4 2 10 -4
12 -8 2 -10 18 -7 42 6 42 -13 67 -22 29z m12 -30 c-3 -7 -5 -2 -5 12 0 14 2
19 5 13 2 -7 2 -19 0 -25z"/>
<path d="M4360 2169 c0 -17 4 -28 10 -24 6 3 10 17 10 31 0 13 -4 24 -10 24
-5 0 -10 -14 -10 -31z"/>
<path d="M4472 2095 c0 -16 2 -22 5 -12 2 9 2 23 0 30 -3 6 -5 -1 -5 -18z"/>
<path d="M4321 2074 c0 -11 3 -14 6 -6 3 7 2 16 -1 19 -3 4 -6 -2 -5 -13z"/>
<path d="M4132 2060 c0 -14 2 -19 5 -12 2 6 2 18 0 25 -3 6 -5 1 -5 -13z"/>
<path d="M4235 2028 c9 -22 44 -33 58 -19 8 8 4 11 -14 11 -14 0 -31 6 -38 13
-10 10 -11 9 -6 -5z"/>
<path d="M4268 2033 c6 -2 18 -2 25 0 6 3 1 5 -13 5 -14 0 -19 -2 -12 -5z"/>
<path d="M4810 2020 c0 -19 3 -21 12 -12 9 9 9 15 0 24 -9 9 -12 7 -12 -12z"/>
<path d="M4840 2030 c0 -5 5 -10 10 -10 6 0 10 5 10 10 0 6 -4 10 -10 10 -5 0
-10 -4 -10 -10z"/>
<path d="M4830 1990 c0 -5 5 -10 10 -10 6 0 10 5 10 10 0 6 -4 10 -10 10 -5 0
-10 -4 -10 -10z"/>
<path d="M4815 1960 c3 -5 8 -10 11 -10 2 0 4 5 4 10 0 6 -5 10 -11 10 -5 0
-7 -4 -4 -10z"/>
<path d="M735 1420 c-3 -5 -2 -10 4 -10 5 0 13 5 16 10 3 6 2 10 -4 10 -5 0
-13 -4 -16 -10z"/>
<path d="M828 1423 c7 -3 16 -2 19 1 4 3 -2 6 -13 5 -11 0 -14 -3 -6 -6z"/>
<path d="M828 1403 c6 -2 18 -2 25 0 6 3 1 5 -13 5 -14 0 -19 -2 -12 -5z"/>
<path d="M1050 1295 c0 -15 4 -24 10 -20 6 3 10 12 10 20 0 8 -4 17 -10 20 -6
4 -10 -5 -10 -20z"/>
<path d="M700 1251 c0 -10 19 -25 25 -20 1 2 -3 10 -11 17 -8 7 -14 8 -14 3z"/>
<path d="M833 1144 c0 -7 7 -10 15 -6 11 4 13 1 7 -8 -6 -9 -4 -11 5 -5 10 6
12 4 7 -9 -4 -10 -3 -15 3 -11 17 11 5 48 -17 50 -11 1 -20 -4 -20 -11z"/>
<path d="M436 1121 c-4 -7 -5 -15 -2 -18 9 -9 19 4 14 18 -4 11 -6 11 -12 0z"/>
<path d="M735 1110 c3 -5 8 -10 11 -10 2 0 4 5 4 10 0 6 -5 10 -11 10 -5 0 -7
-4 -4 -10z"/>
<path d="M421 1064 c0 -11 3 -14 6 -6 3 7 2 16 -1 19 -3 4 -6 -2 -5 -13z"/>
<path d="M916 1058 c16 -12 31 -25 34 -29 3 -3 19 0 35 8 l30 13 -32 -5 c-18
-4 -34 -2 -38 5 -3 6 -3 10 2 9 4 -1 15 -1 23 1 11 1 9 4 -5 9 -12 5 -23 4
-27 -3 -5 -8 -11 -7 -20 2 -6 6 -16 12 -21 12 -5 0 3 -10 19 -22z"/>
<path d="M1110 1069 c0 -6 -9 -8 -22 -4 -13 3 -18 3 -13 -2 6 -5 13 -12 16
-16 3 -4 14 2 24 13 10 11 13 20 7 20 -7 0 -12 -5 -12 -11z"/>
<path d="M816 1034 c-23 -23 -20 -30 4 -9 11 10 20 20 20 22 0 7 -9 2 -24 -13z"/>
<path d="M1025 1040 c-3 -5 1 -10 10 -10 9 0 13 5 10 10 -3 6 -8 10 -10 10 -2
0 -7 -4 -10 -10z"/>
<path d="M890 955 c7 -8 20 -15 28 -15 13 0 12 3 -4 15 -25 19 -40 19 -24 0z"/>
<path d="M568 903 c7 -3 16 -2 19 1 4 3 -2 6 -13 5 -11 0 -14 -3 -6 -6z"/>
<path d="M371 874 c0 -11 3 -14 6 -6 3 7 2 16 -1 19 -3 4 -6 -2 -5 -13z"/>
<path d="M440 860 c0 -5 5 -10 10 -10 6 0 10 5 10 10 0 6 -4 10 -10 10 -5 0
-10 -4 -10 -10z"/>
<path d="M488 843 c7 -3 16 -2 19 1 4 3 -2 6 -13 5 -11 0 -14 -3 -6 -6z"/>
<path d="M886 794 c-9 -24 -7 -27 9 -10 17 17 19 26 6 26 -5 0 -12 -7 -15 -16z"/>
<path d="M652 793 c-10 -4 -9 -8 5 -19 10 -7 23 -13 28 -13 6 0 2 4 -9 10 -15
9 -16 13 -5 20 15 9 2 11 -19 2z"/>
<path d="M380 758 c0 -19 -2 -20 -10 -8 -5 8 -10 10 -10 4 0 -5 7 -19 15 -30
13 -18 14 -17 15 19 0 20 -2 37 -5 37 -3 0 -5 -10 -5 -22z"/>
<path d="M390 685 c0 -8 4 -15 10 -15 5 0 7 7 4 15 -4 8 -8 15 -10 15 -2 0 -4
-7 -4 -15z"/>
<path d="M440 640 c0 -5 5 -10 11 -10 5 0 7 5 4 10 -3 6 -8 10 -11 10 -2 0 -4
-4 -4 -10z"/>
<path d="M703 573 c9 -2 23 -2 30 0 6 3 -1 5 -18 5 -16 0 -22 -2 -12 -5z"/>
<path d="M738 553 c6 -2 18 -2 25 0 6 3 1 5 -13 5 -14 0 -19 -2 -12 -5z"/>
<path d="M3958 1443 c23 -2 61 -2 85 0 23 2 4 4 -43 4 -47 0 -66 -2 -42 -4z"/>
<path d="M3698 1413 c12 -2 32 -2 45 0 12 2 2 4 -23 4 -25 0 -35 -2 -22 -4z"/>
<path d="M2258 1102 c-15 -16 -14 -17 13 -19 32 -2 49 15 28 28 -18 11 -21 11
-41 -9z"/>
<path d="M435 570 c3 -5 8 -10 11 -10 2 0 4 5 4 10 0 6 -5 10 -11 10 -5 0 -7
-4 -4 -10z"/>
<path d="M478 533 c7 -3 16 -2 19 1 4 3 -2 6 -13 5 -11 0 -14 -3 -6 -6z"/>
<path d="M460 505 c0 -5 5 -17 10 -25 5 -8 10 -10 10 -5 0 6 -5 17 -10 25 -5
8 -10 11 -10 5z"/>
<path d="M740 470 c0 -5 5 -10 11 -10 5 0 7 5 4 10 -3 6 -8 10 -11 10 -2 0 -4
-4 -4 -10z"/>
<path d="M740 400 c-8 -5 -12 -12 -9 -15 4 -3 12 1 19 10 14 17 11 19 -10 5z"/>
<path d="M4320 1390 c0 -5 5 -10 11 -10 5 0 7 5 4 10 -3 6 -8 10 -11 10 -2 0
-4 -4 -4 -10z"/>
<path d="M3200 1383 c0 -6 34 -13 77 -16 45 -3 79 -11 84 -19 4 -7 10 -10 13
-8 2 3 -1 12 -8 21 -13 19 -166 39 -166 22z"/>
<path d="M4198 1362 l-27 -18 35 -10 c34 -11 49 -2 17 10 -14 6 -14 8 3 21 27
21 4 18 -28 -3z"/>
<path d="M4000 1361 c0 -7 24 -11 62 -11 74 0 73 5 -4 14 -39 5 -58 4 -58 -3z"/>
<path d="M4338 1363 c-10 -2 -18 -9 -18 -13 0 -8 43 -5 78 6 6 2 12 0 12 -5 0
-9 41 -23 48 -16 2 2 -10 11 -27 19 -29 16 -58 18 -93 9z"/>
<path d="M2885 1340 c-25 -11 1 -11 35 0 20 6 21 8 5 8 -11 0 -29 -3 -40 -8z"/>
<path d="M3200 1340 c0 -5 24 -10 54 -10 30 0 58 5 61 10 4 6 -17 10 -54 10
-34 0 -61 -4 -61 -10z"/>
<path d="M4138 1343 c7 -3 16 -2 19 1 4 3 -2 6 -13 5 -11 0 -14 -3 -6 -6z"/>
<path d="M4350 1328 c-14 -6 -36 -10 -50 -9 -19 1 -16 -2 12 -13 21 -7 49 -21
63 -30 13 -9 37 -15 52 -15 l28 1 -25 7 c-14 3 -36 14 -50 24 -21 15 -23 19
-10 27 19 13 40 13 40 0 0 -5 -7 -7 -15 -4 -8 4 -15 1 -15 -5 0 -13 66 -15 74
-2 3 5 -8 14 -26 20 -37 13 -45 13 -78 -1z"/>
<path d="M4500 1290 c0 -7 24 -20 36 -20 13 0 1 19 -16 23 -11 3 -20 2 -20 -3z"/>
<path d="M2905 1280 c-22 -4 -45 -5 -52 -3 -7 3 -13 0 -13 -7 0 -13 59 -9 120
8 28 8 30 10 10 10 -14 0 -43 -4 -65 -8z"/>
<path d="M4553 1266 c-12 -14 -7 -26 9 -26 5 0 6 4 3 10 -4 6 1 7 12 3 16 -6
16 -5 4 10 -16 20 -13 20 -28 3z"/>
<path d="M4488 1253 c6 -2 18 -2 25 0 6 3 1 5 -13 5 -14 0 -19 -2 -12 -5z"/>
<path d="M4495 1230 c3 -5 8 -10 11 -10 2 0 4 5 4 10 0 6 -5 10 -11 10 -5 0
-7 -4 -4 -10z"/>
<path d="M4565 1229 c-4 -6 2 -13 14 -16 12 -3 21 -9 21 -14 0 -12 -7 -11 -30
1 -27 14 -17 -11 10 -28 17 -10 20 -10 20 3 0 8 7 15 16 15 13 0 11 5 -7 25
-27 27 -35 30 -44 14z"/>
<path d="M2430 1100 c-9 -6 -10 -10 -3 -10 6 0 15 5 18 10 8 12 4 12 -15 0z"/>
<path d="M2090 896 c6 -8 18 -12 26 -9 23 9 16 23 -12 23 -22 0 -24 -2 -14
-14z"/>
<path d="M1994 861 c0 -11 11 -22 28 -29 16 -6 28 -6 28 -1 0 5 7 9 15 9 8 0
15 9 15 20 0 17 -7 20 -43 20 -35 0 -43 -3 -43 -19z"/>
<path d="M1892 853 c-6 -2 -10 -9 -7 -13 3 -5 -4 -15 -16 -24 -12 -8 -18 -19
-14 -25 9 -16 35 -13 35 4 0 9 6 12 15 9 9 -4 15 0 15 10 0 9 -4 16 -10 16 -5
0 -7 7 -4 15 6 16 6 16 -14 8z"/>
<path d="M2003 804 c0 -14 2 -21 6 -17 3 4 9 10 12 13 4 3 1 10 -6 17 -10 9
-12 6 -12 -13z"/>
<path d="M1920 731 l0 -24 28 24 c15 13 28 24 30 25 1 1 -11 1 -28 0 -25 -1
-30 -5 -30 -25z"/>
<path d="M1726 712 c-3 -6 0 -12 6 -15 7 -2 -3 -9 -22 -14 -28 -7 -35 -15 -37
-36 -1 -15 2 -29 6 -32 13 -7 68 59 65 79 -3 23 -10 30 -18 18z"/>
<path d="M1770 584 c0 -8 5 -12 10 -9 6 3 10 10 10 16 0 5 -4 9 -10 9 -5 0
-10 -7 -10 -16z"/>
<path d="M3165 564 c-9 -15 -12 -23 -6 -20 11 7 35 46 28 46 -3 0 -12 -12 -22
-26z"/>
<path d="M3361 525 c-7 -22 -14 -46 -16 -52 -3 -8 -20 4 -43 28 -57 61 -71 44
-16 -19 49 -56 49 -58 27 -149 -3 -13 -1 -23 5 -23 6 0 13 18 17 40 8 49 17
55 41 29 25 -28 74 -62 74 -52 0 4 -20 30 -45 58 -49 54 -50 57 -34 103 6 17
9 41 7 54 -3 19 -6 16 -17 -17z"/>
<path d="M1768 523 c7 -3 16 -2 19 1 4 3 -2 6 -13 5 -11 0 -14 -3 -6 -6z"/>
<path d="M3124 508 c-4 -6 -9 -46 -12 -87 -4 -78 9 -150 32 -173 7 -7 11 -19
8 -26 -2 -7 2 -10 12 -6 9 3 16 2 16 -3 0 -5 18 -17 40 -27 22 -10 40 -22 40
-27 0 -5 -13 -3 -30 6 -16 9 -30 11 -30 6 0 -5 6 -12 13 -14 7 -3 4 -6 -7 -6
-14 -1 -17 4 -13 19 3 11 1 20 -4 20 -5 0 -9 -5 -9 -11 0 -5 -5 -7 -11 -4 -6
4 -8 13 -5 21 3 8 0 11 -9 8 -8 -3 -16 3 -20 16 -4 12 -9 19 -12 17 -7 -8 23
-60 49 -83 24 -21 73 -39 62 -23 -11 18 16 8 41 -15 68 -63 255 -26 301 59 14
26 15 35 5 51 -9 13 -11 14 -8 3 8 -24 -30 -82 -48 -75 -9 3 -15 -1 -15 -9 0
-15 -11 -19 -39 -16 -7 2 -10 -2 -6 -8 4 -7 -4 -11 -19 -11 -14 0 -26 5 -26
10 0 13 -37 13 -45 0 -3 -6 4 -10 17 -11 13 0 17 -3 9 -6 -23 -9 -119 17 -125
34 -5 12 -2 13 11 7 10 -4 45 -8 78 -8 33 -1 66 -5 74 -10 11 -7 13 -5 9 5 -4
10 1 15 13 15 11 0 19 -4 19 -9 0 -4 5 -5 10 -2 6 4 8 11 5 16 -4 5 -1 9 6 9
7 0 9 3 6 7 -4 3 -1 13 6 22 8 9 17 25 21 35 5 16 2 14 -17 -6 -59 -64 -146
-82 -228 -47 -110 46 -152 118 -153 261 -1 49 -2 88 -3 88 -1 0 -5 -5 -9 -12z"/>
<path d="M1690 425 c-6 -8 -10 -21 -8 -30 3 -15 6 -15 26 3 12 11 22 24 22 31
0 16 -25 14 -40 -4z"/>
<path d="M3573 383 c1 -29 5 -53 9 -53 11 0 9 60 -2 85 -6 14 -8 5 -7 -32z"/>
<path d="M1660 345 c0 -8 4 -15 9 -15 5 0 11 7 15 15 3 9 0 15 -9 15 -8 0 -15
-7 -15 -15z"/>
<path d="M3530 198 c-12 -17 -18 -28 -11 -24 6 4 11 2 11 -5 0 -16 11 -5 14
13 1 7 5 19 10 26 17 28 -2 20 -24 -10z"/>
<path d="M558 118 c5 -5 16 -8 23 -6 8 3 3 7 -10 11 -17 4 -21 3 -13 -5z"/>
<path d="M718 83 c12 -2 30 -2 40 0 9 3 -1 5 -23 4 -22 0 -30 -2 -17 -4z"/>
<path d="M728 63 c7 -3 16 -2 19 1 4 3 -2 6 -13 5 -11 0 -14 -3 -6 -6z"/>
<path d="M1433 33 c-15 -5 -18 -33 -4 -33 5 0 11 9 14 20 3 11 4 20 4 19 -1 0
-8 -3 -14 -6z"/>
<path d="M1480 20 c0 -11 7 -20 15 -20 8 0 15 9 15 20 0 11 -7 20 -15 20 -8 0
-15 -9 -15 -20z"/>
</g>
</svg>
